<!--?xml version="1.0" encoding="utf-8"?-->
<!-- Generator: Adobe Illustrator 18.1.1, SVG Export Plug-In . SVG Version: 6.00 Build 0)  -->

<svg version="1.1" id="_x32_" xmlns="http://www.w3.org/2000/svg" xmlns:xlink="http://www.w3.org/1999/xlink" x="0px" y="0px" viewBox="0 0 512 512" style="width: 256px; height: 256px; opacity: 1;" xml:space="preserve">
<style type="text/css">
	.st0{fill:#4B4B4B;}
</style>
<g>
	<path class="st0" d="M420.966,333.553c-1.438-1.521-2.878-3.042-4.316-4.655c-7.028-7.788-14.056-16.255-21.002-25.482
		c26.078-7.706,45.046-31.75,45.046-60.202c0-34.71-28.113-62.74-62.74-62.74c-15.66,0-30.138,5.845-41.152,15.494
		c-4.399-11.682-8.376-23.961-11.931-36.827c-5.168-18.546-9.484-38.439-12.618-59.606l-1.612-10.84H194.819l-1.612,10.84
		c-16.843,112.863-65.444,187.964-109.812,235.118c-22.185,23.623-43.269,40.135-58.672,50.718
		c-7.706,5.332-14.056,9.144-18.373,11.6c-2.207,1.182-3.811,2.034-4.911,2.62l-1.191,0.596L0,400.361l1.943,4.142l8.888,18.802
		c1.018-0.512,43.864-21.001,91.109-71.206c23.284-24.722,47.576-56.729,68.321-97.029c0.34,0,0.678,0.083,1.017,0.083h145.126
		h17.355c0.504,0,0.926-0.083,1.438-0.083c9.31,18.116,19.472,34.628,29.89,49.527c4.655,6.772,9.475,13.213,14.222,19.39
		c1.604,1.951,3.134,3.812,4.655,5.672c0.843,1.017,1.612,2.034,2.455,3.05c5.672,6.938,11.427,13.378,17.099,19.39
		c47.245,50.205,90.092,70.694,91.018,71.206l9.402-19.728l1.612-3.217C505.039,400.188,464.904,380.716,420.966,333.553z
		 M316.653,229.752H182.284c14.735-33.445,26.757-71.885,34.207-115.658h72.48c2.365,13.883,5.16,27.26,8.467,40.052
		c1.943,8.128,4.151,15.999,6.598,23.622c0.34,1.439,0.852,2.786,1.274,4.233c4.234,13.544,8.888,26.5,14.056,38.77
		c1.182,3.051,2.538,6.02,3.812,8.98H316.653z" style="fill: rgb(75, 75, 75);"></path>
	<rect x="371.935" y="109.134" class="st0" width="12.03" height="53.282" style="fill: rgb(75, 75, 75);"></rect>
	
		<rect x="447.883" y="292.505" transform="matrix(-0.7072 0.7071 -0.7071 -0.7072 1000.53 223.8978)" class="st0" width="12.032" height="53.28" style="fill: rgb(75, 75, 75);"></rect>
	<rect x="458.72" y="237.177" class="st0" width="53.28" height="12.039" style="fill: rgb(75, 75, 75);"></rect>
	
		<rect x="447.887" y="140.611" transform="matrix(0.7071 0.7071 -0.7071 0.7071 251.1975 -271.9678)" class="st0" width="12.032" height="53.273" style="fill: rgb(75, 75, 75);"></rect>
</g>
</svg>
