<!--?xml version="1.0" encoding="utf-8"?-->
<!-- Generator: Adobe Illustrator 18.1.1, SVG Export Plug-In . SVG Version: 6.00 Build 0)  -->

<svg version="1.1" id="_x31_0" xmlns="http://www.w3.org/2000/svg" xmlns:xlink="http://www.w3.org/1999/xlink" x="0px" y="0px" viewBox="0 0 512 512" style="width: 256px; height: 256px; opacity: 1;" xml:space="preserve">
<style type="text/css">
	.st0{fill:#374149;}
</style>
<g>
	<path class="st0" d="M349.395,0H162.609c-22.309,0-40.461,18.149-40.461,40.457v431.086c0,22.308,18.152,40.457,40.461,40.457
		h186.786c22.308,0,40.457-18.149,40.457-40.457V40.457C389.852,18.149,371.703,0,349.395,0z M145.555,40.457
		c0-9.378,7.676-17.05,17.054-17.05h186.786c9.378,0,17.05,7.672,17.05,17.05v431.086c0,9.378-7.672,17.05-17.05,17.05H162.609
		c-9.378,0-17.054-7.672-17.054-17.05V40.457z" style="fill: rgb(75, 75, 75);"></path>
	<path class="st0" d="M256.004,461.016c25.981,0,47.043-21.066,47.043-47.047c0-21.18-13.926-39.027-33.176-44.996V75.469V74.57l0,0
		v-0.16h-27.492h-0.086l0,0h-0.161v294.562c-19.25,5.969-33.175,23.816-33.175,44.996
		C208.957,439.95,230.02,461.016,256.004,461.016z M237.043,393.84c4.332-4.622,10.414-6.027,13.633-3.043
		c3.16,2.985,2.226,9.129-2.106,13.754c-4.386,4.68-10.472,6.024-13.633,3.039C231.777,404.61,232.715,398.465,237.043,393.84z" style="fill: rgb(75, 75, 75);"></path>
	<polygon class="st0" points="205.504,94.355 175.765,94.355 175.676,94.355 175.676,94.355 175.516,94.355 175.516,102.402 
		205.504,102.402 	" style="fill: rgb(75, 75, 75);"></polygon>
	<polygon class="st0" points="205.504,134.183 175.765,134.183 175.676,134.183 175.676,134.183 175.516,134.183 175.516,142.226 
		205.504,142.226 	" style="fill: rgb(75, 75, 75);"></polygon>
	<rect x="175.516" y="174.008" class="st0" width="29.988" height="8.046" style="fill: rgb(75, 75, 75);"></rect>
	<rect x="175.516" y="213.836" class="st0" width="29.988" height="8.043" style="fill: rgb(75, 75, 75);"></rect>
	<rect x="175.516" y="253.66" class="st0" width="29.988" height="8.047" style="fill: rgb(75, 75, 75);"></rect>
	<polygon class="st0" points="205.504,293.488 175.765,293.488 175.676,293.488 175.676,293.488 175.516,293.488 175.516,301.535 
		205.504,301.535 	" style="fill: rgb(75, 75, 75);"></polygon>
	<polygon class="st0" points="205.504,333.317 175.765,333.317 175.676,333.317 175.676,333.317 175.516,333.317 175.516,341.359 
		205.504,341.359 	" style="fill: rgb(75, 75, 75);"></polygon>
	<path class="st0" d="M294.496,116.438c0.414,1.422,1.238,2.75,2.469,3.988c0.863,0.859,2.042,1.61,3.542,2.246
		c1.496,0.633,3.293,0.953,5.391,0.953c2.098,0,3.866-0.32,5.308-0.953c1.442-0.637,2.614-1.406,3.512-2.305
		c1.461-1.461,2.414-3.023,2.863-4.691c0.18-0.653,0.16-1.555,0.266-2.297c0.043-0.313,0.078-0.626,0.11-0.954
		c0.09-0.886,0.301-1.617,0.301-2.617c0-1.914-0.207-3.774-0.618-5.594c-0.41-1.813-1.406-3.508-2.976-5.082
		c-0.825-0.824-1.856-1.481-3.09-1.965c-1.238-0.488-2.699-0.73-4.382-0.73c-1.348,0-2.555,0.207-3.626,0.617
		c-0.742,0.286-1.179,0.637-1.664,0.981c-0.222,0.117-0.503,0.234-0.722,0.348v-8.52h15.969h0.05l0,0h0.161v-6.57h-22.578h-0.07l0,0
		h-0.16v22.352v0.07l0,0v0.16h6.687c0.258-0.786,0.758-1.527,1.489-2.219c0.73-0.691,1.843-1.039,3.343-1.039
		c1.797,0,3.059,0.618,3.79,1.856c0.73,1.234,1.098,3.011,1.098,5.336c0,1.274-0.106,2.422-0.313,3.453
		c-0.203,1.031-0.625,1.863-1.262,2.5c-0.863,0.863-2.023,1.293-3.484,1.293c-1.535,0-2.688-0.43-3.454-1.293
		c-0.77-0.863-1.246-2.078-1.434-3.652h-6.617l-0.524-0.012c0,0.004,0,0.008,0,0.012h-0.16
		C293.824,113.57,294.082,115.012,294.496,116.438z" style="fill: rgb(75, 75, 75);"></path>
	<path class="st0" d="M327.75,120.535c1.125,1.012,2.418,1.782,3.879,2.305c1.461,0.523,3.015,0.785,4.664,0.785
		c1.606,0,3.152-0.262,4.633-0.785c1.476-0.523,2.77-1.293,3.874-2.305c1.102-1.012,1.985-2.254,2.641-3.734
		c0.653-1.481,0.981-3.176,0.981-5.086V94.863c0-1.906-0.328-3.602-0.981-5.086c-0.656-1.477-1.539-2.723-2.641-3.734
		c-1.105-1.008-2.398-1.778-3.874-2.301c-1.481-0.524-3.027-0.786-4.633-0.786c-1.649,0-3.203,0.262-4.664,0.786
		c-1.462,0.523-2.754,1.293-3.879,2.301c-1.121,1.011-2.012,2.258-2.668,3.734c-0.652,1.484-0.981,3.179-0.981,5.086v16.852
		c0,1.91,0.329,3.605,0.981,5.086C325.738,118.282,326.629,119.523,327.75,120.535z M336.293,117.054
		c-1.462,0-2.641-0.48-3.543-1.434c-0.898-0.953-1.348-2.277-1.348-3.961V94.977c0-1.688,0.45-3.016,1.348-3.989
		c0.902-0.972,2.082-1.461,3.543-1.461c1.457,0,2.629,0.489,3.507,1.461c0.879,0.973,1.321,2.301,1.321,3.989v16.683
		c0,1.684-0.442,3.008-1.321,3.961C338.922,116.574,337.75,117.054,336.293,117.054z" style="fill: rgb(75, 75, 75);"></path>
	<path class="st0" d="M294.414,227.938c0.711,1.48,1.656,2.695,2.836,3.652c1.18,0.954,2.527,1.657,4.043,2.106
		c1.519,0.446,3.102,0.672,4.75,0.672c1.719,0,3.352-0.242,4.887-0.73c1.535-0.485,2.882-1.222,4.042-2.219
		c1.16-0.992,2.078-2.238,2.754-3.734c0.675-1.496,1.011-3.238,1.011-5.226c0-2.43-0.507-4.367-1.515-5.812
		c-0.859-1.219-1.894-2.133-3.043-2.86c-0.191-0.152-0.367-0.32-0.566-0.468c1.289-0.707,2.375-1.688,3.242-2.962
		c0.878-1.293,1.32-3.027,1.32-5.199c0-1.683-0.301-3.23-0.898-4.633c-0.602-1.402-1.446-2.613-2.527-3.625
		c-1.086-1.008-2.379-1.797-3.879-2.359c-1.496-0.558-3.125-0.844-4.886-0.844c-1.684,0-3.266,0.262-4.746,0.789
		c-1.48,0.524-2.762,1.274-3.847,2.25c-1.086,0.973-1.958,2.16-2.614,3.566c-0.617,1.324-0.938,2.84-1.004,4.512
		c-0.008,0.042-0.027,0.082-0.035,0.129h0.02c-0.004,0.054-0.016,0.102-0.02,0.16h7.305c0.074-1.535,0.57-2.726,1.489-3.566
		c0.914-0.844,2.066-1.266,3.453-1.266c1.313,0,2.453,0.43,3.43,1.293c0.969,0.863,1.457,2.133,1.457,3.821
		c0,1.422-0.39,2.609-1.179,3.566c-0.786,0.957-2.078,1.434-3.875,1.434h-1.066v6.347h1.066c1.797,0,3.183,0.496,4.156,1.488
		c0.973,0.993,1.461,2.332,1.461,4.016c0,1.797-0.503,3.176-1.515,4.129c-1.012,0.954-2.305,1.434-3.875,1.434
		c-0.711,0-1.398-0.106-2.05-0.309c-0.657-0.206-1.227-0.523-1.715-0.957c-0.488-0.43-0.878-0.973-1.179-1.629
		c-0.301-0.656-0.469-1.43-0.504-2.332h-6.993l-0.152-0.004v0.004h-0.16C293.324,224.668,293.699,226.457,294.414,227.938z" style="fill: rgb(75, 75, 75);"></path>
	<path class="st0" d="M345.223,196.789c-1.11-1.011-2.398-1.781-3.879-2.305c-1.477-0.527-3.023-0.789-4.633-0.789
		c-1.648,0-3.203,0.262-4.664,0.789c-1.457,0.524-2.75,1.294-3.875,2.305c-1.121,1.008-2.011,2.254-2.668,3.734
		c-0.656,1.481-0.984,3.172-0.984,5.086v16.847c0,1.914,0.328,3.606,0.984,5.086c0.657,1.48,1.547,2.722,2.668,3.734
		c1.126,1.011,2.418,1.777,3.875,2.305c1.461,0.523,3.016,0.785,4.664,0.785c1.61,0,3.156-0.262,4.633-0.785
		c1.481-0.528,2.77-1.294,3.879-2.305c1.102-1.012,1.984-2.254,2.641-3.734c0.652-1.481,0.98-3.172,0.98-5.086V205.61
		c0-1.914-0.328-3.606-0.98-5.086C347.207,199.043,346.324,197.797,345.223,196.789z M336.711,227.797
		c-1.461,0-2.641-0.48-3.539-1.434c-0.898-0.953-1.347-2.274-1.347-3.961v-16.684c0-1.683,0.449-3.011,1.347-3.988
		c0.898-0.973,2.078-1.461,3.539-1.461c1.461,0,2.633,0.488,3.512,1.461c0.875,0.977,1.32,2.305,1.32,3.988v16.684
		c0,1.687-0.445,3.008-1.32,3.961C339.344,227.317,338.172,227.797,336.711,227.797z" style="fill: rgb(75, 75, 75);"></path>
	<polygon class="st0" points="295,311.855 295,316.527 294.895,319.598 295,319.512 295,319.718 299.984,315.394 303.148,312.778 
		303.148,344.774 310.449,344.774 310.449,304.778 303.148,304.778 	" style="fill: rgb(75, 75, 75);"></polygon>
	<path class="st0" d="M326.461,342.023c1.121,1.008,2.414,1.778,3.874,2.301c1.462,0.524,3.016,0.786,4.664,0.786
		c1.61,0,3.153-0.262,4.633-0.786c1.481-0.523,2.77-1.293,3.875-2.301c1.106-1.015,1.985-2.258,2.641-3.738
		c0.652-1.48,0.984-3.171,0.984-5.086v-16.848c0-1.914-0.332-3.605-0.984-5.086c-0.656-1.481-1.535-2.726-2.641-3.734
		c-1.106-1.012-2.394-1.778-3.875-2.305c-1.48-0.523-3.023-0.789-4.633-0.789c-1.648,0-3.202,0.266-4.664,0.789
		c-1.461,0.527-2.754,1.293-3.874,2.305c-1.122,1.008-2.016,2.254-2.668,3.734c-0.657,1.481-0.985,3.172-0.985,5.086v16.848
		c0,1.914,0.328,3.606,0.985,5.086C324.445,339.766,325.34,341.008,326.461,342.023z M335,311.012c1.462,0,2.63,0.488,3.512,1.461
		c0.875,0.977,1.317,2.305,1.317,3.988v16.684c0,1.687-0.442,3.007-1.317,3.961c-0.882,0.953-2.05,1.434-3.512,1.434
		c-1.461,0-2.64-0.481-3.542-1.434c-0.898-0.954-1.344-2.274-1.344-3.961v-16.684c0-1.683,0.446-3.011,1.344-3.988
		C332.36,311.5,333.539,311.012,335,311.012z" style="fill: rgb(75, 75, 75);"></path>
</g>
</svg>
