<!--?xml version="1.0" encoding="utf-8"?-->
<!-- Generator: Adobe Illustrator 18.1.1, SVG Export Plug-In . SVG Version: 6.00 Build 0)  -->

<svg version="1.1" id="_x32_" xmlns="http://www.w3.org/2000/svg" xmlns:xlink="http://www.w3.org/1999/xlink" x="0px" y="0px" viewBox="0 0 512 512" style="width: 256px; height: 256px; opacity: 1;" xml:space="preserve">
<style type="text/css">
	.st0{fill:#4B4B4B;}
</style>
<g>
	<path class="st0" d="M387.719,157c-0.007-40.436-32.748-73.184-73.192-73.192c-24.963,0-47.074,12.538-60.238,31.618l17.901,12.392
		c9.329-13.449,24.76-22.233,42.337-22.233c14.238,0.008,27.028,5.736,36.357,15.058c9.32,9.336,15.05,22.119,15.057,36.356
		c-0.007,14.229-5.736,27.011-15.057,36.348c-9.329,9.32-22.119,15.049-36.357,15.057H31.659v21.778h282.868
		C354.972,230.175,387.712,197.419,387.719,157z" style="fill: rgb(75, 75, 75);"></path>
	<path class="st0" d="M224.508,137.302c-0.008-25.19-20.429-45.587-45.596-45.587c-14.53-0.008-27.548,6.826-35.852,17.406
		l17.114,13.472c4.396-5.566,11.1-9.101,18.739-9.101c13.148,0.016,23.793,10.653,23.818,23.809
		c-0.008,6.614-2.65,12.506-6.981,16.854c-4.347,4.323-10.231,6.964-16.837,6.972H66.472v21.778h112.44
		C204.087,182.898,224.499,162.493,224.508,137.302z" style="fill: rgb(75, 75, 75);"></path>
	<path class="st0" d="M316.811,310.656H64.903v21.778h251.908c10.256,0.008,19.43,4.12,26.158,10.832
		c6.712,6.728,10.824,15.903,10.832,26.166c-0.008,10.246-4.12,19.421-10.832,26.15c-6.72,6.704-15.902,10.824-26.158,10.832
		c-11.831-0.008-22.282-5.509-29.083-14.139l-17.113,13.465l-0.008-0.008c10.727,13.66,27.482,22.46,46.205,22.46
		c32.472-0.008,58.76-26.304,58.768-58.759C375.571,336.968,349.283,310.664,316.811,310.656z" style="fill: rgb(75, 75, 75);"></path>
	<path class="st0" d="M459.968,256.837H0v21.778h459.968c8.387,0.008,15.887,3.373,21.389,8.866
		c5.501,5.517,8.857,13.009,8.865,21.395c-0.008,8.394-3.364,15.895-8.865,21.396c-5.502,5.494-13.002,8.85-21.389,8.858
		c-9.677-0.008-18.21-4.502-23.792-11.571l-17.114,13.456h-0.008c9.491,12.101,24.345,19.893,40.914,19.893
		c28.742-0.008,52.024-23.29,52.032-52.032C511.992,280.143,488.718,256.845,459.968,256.837z" style="fill: rgb(75, 75, 75);"></path>
</g>
</svg>
